# xmcd
#
# Track frame offsets:
#	150
#	9348
#	19112
#	30175
#	42074
#	50304
#	60449
#	68665
#	77003
#	88606
#	97381
#	108739
#	118439
#	129375
#
# Disc length: 1859 seconds
#
# Revision: 2
# Processed by: cddbd v1.5.2PL0 Copyright (c) Steve Scherf et al.
# Submitted via: EasyCDDAExtractor 12.0.1.1
#
DISCID=ad07410e
DTITLE=Buck Owens - The Instrumental Hits of Buck Owens and His Buckaroos
DYEAR=1965
DGENRE=Country
TTITLE0=Buckaroo
TTITLE1=Orange Blossom Special
TTITLE2=Raz-Ma-Taz Polka
TTITLE3=Faded Love
TTITLE4=Bud's Bounce
TTITLE5=Country Polka
TTITLE6=Bile 'Em Garbage Down
TTITLE7=Steel Guitar Rag
TTITLE8=A Maiden's Prayer
TTITLE9=Buck's Polka
TTITLE10=Country Rag
TTITLE11=Mexican Polka
TTITLE12=Act Naturally
TTITLE13=I've Got A Tiger By The Tail
EXTD=
EXTT0=
EXTT1=
EXTT2=
EXTT3=
EXTT4=
EXTT5=
EXTT6=
EXTT7=
EXTT8=
EXTT9=
EXTT10=
EXTT11=
EXTT12=
EXTT13=
PLAYORDER=
